<svg width="84" height="94" viewBox="0 0 84 94" fill="none" xmlns="http://www.w3.org/2000/svg">
<g clip-path="url(#clip0_70_1381)">
<path d="M38.4446 74.4259C33.543 73.7087 28.7829 71.8779 24.6071 69.0091C18.7912 64.9796 14.1725 59.0061 11.8914 52.1077C9.57255 45.2377 9.49714 37.4711 11.8254 30.4124C14.1536 23.3536 18.8384 16.946 25.1067 12.5956C28.2173 10.3873 31.7238 8.7359 35.4094 7.61291C39.1044 6.53711 43.0068 6.01808 46.9092 6.15963C48.8604 6.20682 50.8116 6.4333 52.7345 6.82021C54.6574 7.20712 56.5615 7.70728 58.409 8.41504C62.104 9.79282 65.6105 11.7651 68.7117 14.2753C71.8412 16.7667 74.5464 19.8053 76.7521 23.1837C77.8644 24.8729 78.7976 26.6754 79.6177 28.5344C80.4283 30.3935 81.1164 32.3186 81.6066 34.3098C83.652 42.2273 83.0959 50.8998 79.891 58.6191C83.6143 51.1357 84.8303 42.3406 83.2655 33.9418C82.8885 31.8373 82.3135 29.7707 81.5877 27.7512C80.8619 25.7317 79.9853 23.7594 78.9296 21.872C76.8275 18.1067 74.1411 14.6339 70.9268 11.6991C67.7314 8.7359 64.0269 6.30119 60.0209 4.47987C58.0225 3.55506 55.9205 2.84729 53.7902 2.26221C51.6505 1.68656 49.4637 1.28078 47.258 1.07316C42.8371 0.620195 38.3315 0.893864 33.9389 1.85642C29.5652 2.86617 25.2952 4.52706 21.4305 6.89571C13.6352 11.5481 7.36685 18.8616 3.86978 27.4492C0.363278 36.0556 -0.277695 45.8322 2.11653 54.986C4.47304 64.1586 9.96844 72.5291 17.481 78.5309C21.2514 81.5035 25.5026 83.9477 30.0742 85.5897C32.3554 86.4107 34.7119 87.0901 37.1061 87.5337C37.5491 87.6186 37.9921 87.6847 38.4352 87.7602" fill="white"/>
<path d="M35.2682 83.6927L35.0231 93.4409L53.1589 81.4844L35.6453 68.622L35.4002 78.3703L35.2682 83.6927Z" fill="white"/>
</g>
<defs>
<clipPath id="clip0_70_1381">
<rect width="83.2416" height="92.585" fill="white" transform="translate(0.69339 0.855896)"/>
</clipPath>
</defs>
</svg>
